<svg id="Capa_1" enable-background="new 0 0 512 512" height="512" viewBox="0 0 512 512" width="512" xmlns="http://www.w3.org/2000/svg"><g><path d="m92.649 153.314h220.062v351.186h-220.062z" fill="#d6e0f4"/><path d="m92.649 345.711h220.062v158.789h-220.062z" fill="#e27f86"/><path d="m284.936 153.314h27.775v351.186h-27.775z" fill="#b8c9ea"/><path d="m284.936 345.711h27.775v158.789h-27.775z" fill="#df646e"/><path d="m269.059 193.454v49.206c0 2.761-2.239 5-5 5h-122.757c-2.761 0-5-2.239-5-5v-49.206c0-2.761 2.239-5 5-5h122.757c2.761 0 5 2.238 5 5z" fill="#6a61b2"/><path d="m227.576 433.468c0 13.749-11.146 24.896-24.896 24.896s-24.896-11.146-24.896-24.896c0-17.104 17.446-35.397 23.129-40.902.989-.958 2.544-.958 3.533 0 5.684 5.505 23.13 23.798 23.13 40.902z" fill="#d6e0f4"/><path d="m158.973 288.723c-8.799 0-15.932 7.133-15.932 15.932s7.133 15.932 15.932 15.932 15.932-7.133 15.932-15.932-7.133-15.932-15.932-15.932z" fill="#e27f86"/><path d="m246.387 288.723c-8.799 0-15.932 7.133-15.932 15.932s7.133 15.932 15.932 15.932 15.932-7.133 15.932-15.932-7.133-15.932-15.932-15.932z" fill="#77d1b3"/><path d="m471.169 144.794c-6.714-6.227-17.187-5.523-23.025 1.398l-22.161 26.283c-11.113 12.269-17.723 26.16-17.723 39.764 0 11.901 4.642 22.008 11.098 25.654 1.774 1.002 2.875 2.873 2.875 4.91v16.768c0 8.577 6.591 15.957 15.158 16.361 9.147.431 16.7-6.858 16.7-15.911v-71.459l18.119-21.489c5.528-6.557 5.247-16.447-1.041-22.279z" fill="#e27f86"/><path d="m57.724 96.786v402.714c0 2.761 2.239 5 5 5h29.925v-407.714z" fill="#8a94db"/><path d="m312.711 96.786v407.714h29.925c2.761 0 5-2.239 5-5v-402.714z" fill="#8a94db"/><path d="m379.142 12.993v78.3c0 3.034-2.459 5.493-5.493 5.493h-341.938c-3.034 0-5.493-2.459-5.493-5.493v-78.3c0-3.034 2.459-5.493 5.493-5.493h341.938c3.034 0 5.493 2.459 5.493 5.493z" fill="#eec06b"/><path d="m373.649 71.786h-341.938c-3.034 0-5.493-2.459-5.493-5.493v25c0 3.034 2.459 5.493 5.493 5.493h341.938c3.033 0 5.493-2.459 5.493-5.493v-25c0 3.034-2.459 5.493-5.493 5.493z" fill="#e9a52d"/><g><path d="m141.303 255.16h122.757c6.893 0 12.5-5.607 12.5-12.5v-49.206c0-6.893-5.607-12.5-12.5-12.5h-122.757c-6.893 0-12.5 5.607-12.5 12.5v49.206c0 6.893 5.607 12.5 12.5 12.5zm2.5-59.206h117.757v44.206h-117.757z"/><path d="m209.667 387.181c-3.918-3.799-10.055-3.797-13.971-.002-7.641 7.401-25.411 26.729-25.411 46.289 0 17.863 14.532 32.396 32.396 32.396s32.396-14.532 32.396-32.396c-.001-19.562-17.771-38.888-25.41-46.287zm-6.986 63.682c-9.592 0-17.396-7.804-17.396-17.396 0-10.009 8.456-22.5 17.396-32.01 8.938 9.509 17.395 22 17.395 32.01 0 9.593-7.804 17.396-17.395 17.396z"/><path d="m158.974 281.224c-12.92 0-23.432 10.512-23.432 23.432s10.512 23.432 23.432 23.432c12.921 0 23.433-10.512 23.433-23.432s-10.512-23.432-23.433-23.432zm0 31.863c-4.649 0-8.432-3.782-8.432-8.432s3.782-8.432 8.432-8.432 8.433 3.782 8.433 8.432-3.784 8.432-8.433 8.432z"/><path d="m246.388 281.224c-12.92 0-23.432 10.512-23.432 23.432s10.512 23.432 23.432 23.432c12.921 0 23.433-10.512 23.433-23.432s-10.512-23.432-23.433-23.432zm0 31.863c-4.649 0-8.432-3.782-8.432-8.432s3.782-8.432 8.432-8.432 8.433 3.782 8.433 8.432-3.784 8.432-8.433 8.432z"/><path d="m476.761 198.302-15.17-3.096v-3.903l16.353-19.395c8.241-9.774 7.505-24.099-1.673-32.613-4.75-4.406-10.921-6.614-17.375-6.22-6.364.39-12.372 3.408-16.483 8.282l-22.077 26.184c-12.807 14.177-19.573 29.63-19.573 44.698 0 13.934 5.45 26.186 13.973 31.622v15.71c0 10.219 6.261 18.957 15.158 22.356v171.415c0 9.683-7.878 17.561-17.561 17.561s-17.561-7.878-17.561-17.561v-185.26c0-14.7-11.96-26.66-26.66-26.66h-12.973v-48.711c0-4.143-3.357-7.5-7.5-7.5s-7.5 3.357-7.5 7.5v304.289h-19.926v-392.714h19.926v53.426c0 4.143 3.357 7.5 7.5 7.5s7.5-3.357 7.5-7.5v-53.426h18.513c7.164 0 12.992-5.829 12.992-12.993v-78.3c-.001-7.164-5.83-12.993-12.994-12.993h-216.694c-4.143 0-7.5 3.357-7.5 7.5s3.357 7.5 7.5 7.5h214.687v74.286h-337.924v-74.286h88.237c4.143 0 7.5-3.357 7.5-7.5s-3.357-7.5-7.5-7.5h-90.244c-7.164 0-12.993 5.829-12.993 12.993v78.3c0 7.164 5.829 12.993 12.993 12.993h18.513v287.561c0 4.143 3.357 7.5 7.5 7.5s7.5-3.357 7.5-7.5v-287.561h19.925v392.714h-19.925v-70.152c0-4.143-3.357-7.5-7.5-7.5s-7.5 3.357-7.5 7.5v72.652c0 6.893 5.607 12.5 12.5 12.5h279.913c6.893 0 12.5-5.607 12.5-12.5v-243.077h12.973c6.43 0 11.66 5.23 11.66 11.66v185.26c0 17.954 14.606 32.561 32.561 32.561s32.561-14.606 32.561-32.561v-170.869c3.493-1.042 6.716-2.899 9.44-5.498 4.613-4.4 7.259-10.58 7.259-16.954v-49.506l12.158 2.481c2.626.541 4.532 2.876 4.532 5.554v28.22c0 4.143 3.357 7.5 7.5 7.5s7.5-3.357 7.5-7.5v-28.22c-.001-9.763-6.943-18.278-16.521-20.249zm-171.549 139.909h-205.062v-177.398h205.062zm-205.062 15h205.062v143.789h-205.062zm205.062-248.925v41.527h-205.062v-41.527zm138.767 161.836c-1.684 1.605-3.894 2.422-6.234 2.318-4.417-.208-8.011-4.187-8.011-8.869v-16.768c0-4.728-2.563-9.111-6.688-11.441-3.531-1.994-7.285-9.374-7.285-19.123 0-11.158 5.604-23.492 15.781-34.729.06-.065.118-.132.175-.199l22.16-26.282c1.502-1.78 3.609-2.839 5.935-2.981.177-.011.353-.016.528-.016 2.128 0 4.146.793 5.73 2.262 3.244 3.006 3.424 8.366.406 11.945l-18.119 21.489c-1.141 1.354-1.767 3.065-1.767 4.835v71.459c.001 2.327-.927 4.493-2.611 6.1z"/></g></g></svg>