<svg id="Layer_1" enable-background="new 0 0 512 512" height="512" viewBox="0 0 512 512" width="512" xmlns="http://www.w3.org/2000/svg"><g id="XMLID_412_"><path id="XMLID_870_" d="m105.917 58.042h300.167v443.958h-300.167z" fill="#fff"/><path id="XMLID_869_" d="m148 10h216v48.042h-216z" fill="#c5d3de"/><path id="XMLID_868_" d="m10 222h95.917v280h-95.917z" fill="#ffcd69"/><path id="XMLID_867_" d="m406.083 222h95.917v280h-95.917z" fill="#ffcd69" transform="matrix(-1 0 0 -1 908.083 724)"/><path id="XMLID_866_" d="m308 136.042h-30v-30h-44v30h-30v44h30v30h44v-30h30z" fill="#ff7d97"/><path id="XMLID_502_" d="m162 358h188v144h-188z" fill="#dfedff"/><g id="XMLID_1035_"><path id="XMLID_1107_" d="m502 212h-85.917v-153.958c0-5.523-4.478-10-10-10h-32.083v-38.042c0-5.523-4.478-10-10-10h-216c-5.523 0-10 4.477-10 10v38.042h-32.083c-5.523 0-10 4.477-10 10v153.958h-85.917c-5.523 0-10 4.477-10 10v280c0 5.523 4.477 10 10 10h492c5.522 0 10-4.477 10-10v-280c0-5.523-4.478-10-10-10zm-482 20h75.917v260h-75.917zm95.917-163.958h95.083c5.523 0 10-4.477 10-10s-4.477-10-10-10h-53v-28.042h196v28.042h-53c-5.522 0-10 4.477-10 10s4.478 10 10 10h95.083v423.958h-36.083v-134c0-5.523-4.478-10-10-10h-188c-5.523 0-10 4.477-10 10v134h-36.083zm56.083 299.958h74v124h-74zm94 124v-124h74v124zm226 0h-75.917v-260h75.917z"/><path id="XMLID_1585_" d="m162 320h30.667c5.523 0 10-4.477 10-10s-4.477-10-10-10h-30.667c-5.523 0-10 4.477-10 10s4.477 10 10 10z"/><path id="XMLID_1586_" d="m271.333 300h-30.667c-5.523 0-10 4.477-10 10s4.477 10 10 10h30.667c5.522 0 10-4.477 10-10s-4.478-10-10-10z"/><path id="XMLID_1587_" d="m350 300h-30.667c-5.522 0-10 4.477-10 10s4.478 10 10 10h30.667c5.522 0 10-4.477 10-10s-4.478-10-10-10z"/><path id="XMLID_1588_" d="m162 268.042h30.667c5.523 0 10-4.477 10-10s-4.477-10-10-10h-30.667c-5.523 0-10 4.477-10 10s4.477 10 10 10z"/><path id="XMLID_1589_" d="m271.333 248.042h-30.667c-5.523 0-10 4.477-10 10s4.477 10 10 10h30.667c5.522 0 10-4.477 10-10s-4.478-10-10-10z"/><path id="XMLID_1593_" d="m309.333 258.042c0 5.523 4.478 10 10 10h30.667c5.522 0 10-4.477 10-10s-4.478-10-10-10h-30.667c-5.522 0-10 4.477-10 10z"/><path id="XMLID_1597_" d="m204 190.042h20v20c0 5.523 4.477 10 10 10h44c5.522 0 10-4.477 10-10v-20h20c5.522 0 10-4.477 10-10v-44c0-5.523-4.478-10-10-10h-20v-20c0-5.523-4.478-10-10-10h-44c-5.523 0-10 4.477-10 10v20h-20c-5.523 0-10 4.477-10 10v44c0 5.522 4.477 10 10 10zm10-44h20c5.523 0 10-4.477 10-10v-20h24v20c0 5.523 4.478 10 10 10h20v24h-20c-5.522 0-10 4.477-10 10v20h-24v-20c0-5.523-4.477-10-10-10h-20z"/><path id="XMLID_1598_" d="m256 68.04c2.63 0 5.21-1.07 7.069-2.93 1.86-1.86 2.931-4.44 2.931-7.07s-1.07-5.21-2.931-7.07c-1.859-1.86-4.439-2.93-7.069-2.93s-5.21 1.07-7.07 2.93-2.93 4.44-2.93 7.07 1.07 5.21 2.93 7.07 4.44 2.93 7.07 2.93z"/></g></g></svg>