<svg id="Capa_1" enable-background="new 0 0 512 512" height="512" viewBox="0 0 512 512" width="512" xmlns="http://www.w3.org/2000/svg"><g><g><path d="m438.665 56.554h-368.165c-7.18 0-13 5.82-13 13v87.846h394.165v-87.846c0-7.18-5.82-13-13-13z" fill="#c0d6f2"/><path d="m441.5 56.554h-34.016c7.18 0 13 5.82 13 13v87.846h34.016v-87.846c0-7.18-5.82-13-13-13z" fill="#b2caec"/><path d="m48.5 163.069h412.165v318.223h-412.165z" fill="#d3e1f5"/><path d="m429.484 163.069h34.016v318.223h-34.016z" fill="#c0d6f2"/><path d="m489.165 201.569v-77c0-3.866-3.134-7-7-7h-455.165c-3.866 0-7 3.134-7 7v77c0 3.866 3.134 7 7 7h455.165c3.866 0 7-3.133 7-7z" fill="#0473ce"/><path d="m415 390.223h-166c-4.418 0-8-3.582-8-8v-114c0-4.418 3.582-8 8-8h166c4.418 0 8 3.582 8 8v114c0 4.418-3.582 8-8 8z" fill="#82aee3"/><path d="m415 260.223h-34.016c4.418 0 8 3.582 8 8v114c0 4.418-3.582 8-8 8h34.016c4.418 0 8-3.582 8-8v-114c0-4.418-3.582-8-8-8z" fill="#528fd8"/><path d="m203 458.861h-114v-193.638c0-2.761 2.239-5 5-5h104c2.761 0 5 2.239 5 5z" fill="#5a5a5a"/><g><path d="m119.504 390.723c-4.142 0-7.5-3.358-7.5-7.5v-19c0-4.142 3.358-7.5 7.5-7.5s7.5 3.358 7.5 7.5v19c0 4.142-3.358 7.5-7.5 7.5z" fill="#838383"/></g><path d="m326.514 36.365c-17.963 4.395-37.157-.197-50.971-12.481l-16.066-14.286c-1.988-1.767-4.966-1.767-6.954 0l-16.066 14.286c-13.315 11.84-32.367 17.033-50.971 12.481l-2.923-.715c-2.357-.577-4.454 1.636-3.773 3.988 11.434 39.482-2.478 72.753 10.872 99.745 6.561 13.265 17.939 23.722 31.96 29.374l34.378 13.858 34.378-13.858c14.021-5.652 25.399-16.11 31.96-29.374 3.988-8.064 6.059-16.891 6.059-25.832 0-41.856-1.159-53.289 4.814-73.913.681-2.351-1.416-4.564-3.773-3.988z" fill="#fdb441"/><path d="m260.152 58.603 9.445 19.137c.674 1.367 1.978 2.314 3.486 2.533l21.119 3.069c3.798.552 5.314 5.219 2.566 7.898l-15.282 14.896c-1.091 1.064-1.589 2.596-1.332 4.099l3.608 21.034c.649 3.783-3.322 6.667-6.719 4.881l-18.889-9.931c-1.349-.709-2.96-.709-4.309 0l-18.889 9.931c-3.397 1.786-7.367-1.099-6.719-4.881l3.608-21.034c.258-1.502-.24-3.035-1.332-4.099l-15.281-14.896c-2.748-2.679-1.232-7.346 2.566-7.898l21.119-3.069c1.508-.219 2.812-1.166 3.486-2.533l9.445-19.137c1.698-3.441 6.606-3.441 8.304 0z" fill="#fe9901"/><path d="m485 117.569h-34.016c3.866 0 7 3.134 7 7v77c0 3.866-3.134 7-7 7h34.016c3.866 0 7-3.134 7-7v-77c0-3.866-3.134-7-7-7z" fill="#0067c5"/><g><path d="m329.438 35.65-2.923.715c-7.225 1.768-14.646 2.057-21.839 1.001.322.669.423 1.46.189 2.271-5.973 20.623-4.814 32.057-4.814 73.913 0 8.941-2.07 17.769-6.059 25.832-6.561 13.265-17.939 23.722-31.96 29.374l-20.205 8.145 14.173 5.714 34.378-13.858c14.021-5.652 25.399-16.11 31.96-29.374 3.988-8.064 6.059-16.891 6.059-25.832 0-41.856-1.159-53.289 4.814-73.913.68-2.352-1.416-4.565-3.773-3.988z" fill="#fea613"/></g><path d="m501.665 496.723v-30.862c0-3.866-3.134-7-7-7h-480.165c-3.866 0-7 3.134-7 7v30.862c0 3.866 3.134 7 7 7h480.165c3.866 0 7-3.134 7-7z" fill="#9c9c9c"/><path d="m497.5 458.861h-34.016c3.866 0 7 3.134 7 7v30.862c0 3.866-3.134 7-7 7h34.016c3.866 0 7-3.134 7-7v-30.862c0-3.866-3.134-7-7-7z" fill="#838383"/></g><g><path d="m497.5 451.361h-26.5v-42.208c0-4.142-3.357-7.5-7.5-7.5s-7.5 3.358-7.5 7.5v42.208h-245.5v-186.138c0-6.893-5.607-12.5-12.5-12.5h-104c-6.893 0-12.5 5.607-12.5 12.5v186.138h-25.5v-235.291h400v158.083c0 4.142 3.357 7.5 7.5 7.5s7.5-3.358 7.5-7.5v-158.083h14c7.995 0 14.5-6.505 14.5-14.5v-77c0-7.995-6.505-14.5-14.5-14.5h-23v-40.517c0-11.304-9.196-20.5-20.5-20.5h-102.942c.539-2.459 1.153-4.904 1.855-7.328 1.061-3.658.084-7.638-2.55-10.385-4.741-4.945-10.396-2.93-13.131-2.261-15.749 3.854-32.27-.187-44.206-10.8l-16.065-14.285c-4.822-4.29-12.098-4.29-16.921-.001l-16.067 14.287c-11.937 10.615-28.464 14.651-44.205 10.8-2.682-.656-8.351-2.724-13.131 2.26-2.633 2.747-3.611 6.726-2.552 10.384.702 2.425 1.316 4.87 1.855 7.33h-42.978c-4.142 0-7.5 3.358-7.5 7.5s3.358 7.5 7.5 7.5h45.23c.539 6.473.41 6.114.41 46.016h-111.102v-40.517c0-3.033 2.467-5.5 5.5-5.5h24.963c4.142 0 7.5-3.358 7.5-7.5s-3.358-7.5-7.5-7.5h-24.963c-11.304 0-20.5 9.196-20.5 20.5v40.516h-23c-7.995 0-14.5 6.505-14.5 14.5v77c0 7.995 6.505 14.5 14.5 14.5h14v235.292h-26.5c-7.995 0-14.5 6.505-14.5 14.5v30.862c0 7.995 6.505 14.5 14.5 14.5h483c7.995 0 14.5-6.505 14.5-14.5v-30.862c0-7.995-6.505-14.5-14.5-14.5zm-401-183.638h99v183.638h-99zm239.76-203.149c.014-.174.032-.347.046-.521h105.194c3.032 0 5.5 2.467 5.5 5.5v40.516h-111.104c0-39.705-.107-39.535.364-45.495zm-94.819-35.085 14.559-12.946 14.56 12.946c14.585 12.968 34.367 18.445 53.638 15.025-1.809 7.853-2.944 16.173-3.227 24.831-.102 3.141-.074.095-.074 44.205 0 7.388-1.793 15.455-5.281 22.507-5.752 11.63-15.711 20.773-28.041 25.743l-31.575 12.729-31.574-12.728c-12.306-4.961-22.278-14.09-28.042-25.743-.006-.012-.011-.025-.018-.038-3.532-7.158-5.264-15.221-5.264-22.469v-40.03c0-9.571-1.094-19.43-3.3-29.006 19.273 3.419 39.054-2.057 53.639-15.026zm-213.941 171.581v-76h149.634c3.963 22.341 19.439 41.677 41.684 50.643l34.378 13.858c1.799.726 3.809.726 5.608 0l34.378-13.858c22.383-9.022 37.747-28.451 41.684-50.643h149.635v76c-21.886 0-432.784 0-457.001 0zm469.5 295.153h-482v-29.862h482z"/><path d="m249 252.723c-8.547 0-15.5 6.953-15.5 15.5v114c0 8.547 6.953 15.5 15.5 15.5h166c8.547 0 15.5-6.953 15.5-15.5v-114c0-8.547-6.953-15.5-15.5-15.5zm18.807 130h-18.807c-.276 0-.5-.224-.5-.5v-114c0-.276.224-.5.5-.5h18.807zm36.85 0h-21.851v-115h21.851zm36.851 0h-21.851v-115h21.851zm39.685 0h-24.686v-115h24.686zm34.307-114.5v114c0 .276-.225.5-.5.5h-18.807v-115h18.807c.275 0 .5.224.5.5z"/><path d="m119.504 356.723c-4.142 0-7.5 3.358-7.5 7.5v19c0 4.142 3.358 7.5 7.5 7.5s7.5-3.358 7.5-7.5v-19c0-4.142-3.358-7.5-7.5-7.5z"/><path d="m224.198 110.454-3.353 19.547c-.786 4.584 1.063 9.13 4.827 11.864 3.765 2.734 8.658 3.086 12.774.923l17.554-9.229 17.554 9.229c4.118 2.165 9.012 1.81 12.774-.923 3.764-2.734 5.612-7.28 4.826-11.865l-3.352-19.547 14.201-13.843c3.331-3.247 4.507-8.012 3.069-12.435s-5.19-7.586-9.793-8.255l-19.626-2.852-8.776-17.783c-2.058-4.171-6.226-6.763-10.877-6.763 0 0 0 0-.001 0-4.651 0-8.819 2.591-10.878 6.762l-8.777 17.784-19.624 2.852c-4.603.668-8.355 3.832-9.792 8.255s-.262 9.188 3.069 12.436zm15.797-22.759c3.951-.574 7.365-3.055 9.134-6.636l6.871-13.923 6.872 13.924c1.768 3.58 5.182 6.061 9.133 6.635l15.364 2.233-11.118 10.838c-2.859 2.788-4.163 6.801-3.487 10.736l2.624 15.303-13.743-7.226c-1.768-.929-3.705-1.393-5.644-1.393-1.938 0-3.878.464-5.646 1.393l-13.743 7.225 2.625-15.304c.674-3.936-.631-7.95-3.49-10.735l-11.117-10.837z"/></g></g></svg>